Coordinates
version=1
nRows=4
nColumns=63
inDegrees=yes

Units are S.I. units (second, meters, Newtons, ...)
If the header above contains a line with 'inDegrees', this indicates whether rotational values are in degrees (yes) or radians (no).

endheader
time	pelvis_tilt	pelvis_list	pelvis_rotation	pelvis_tx	pelvis_ty	pelvis_tz	hip_flexion_r	hip_adduction_r	hip_rotation_r	knee_angle_r	knee_angle_r_beta	ankle_angle_r	subtalar_angle_r	mtp_angle_r	hip_flexion_l	hip_adduction_l	hip_rotation_l	knee_angle_l	knee_angle_l_beta	ankle_angle_l	subtalar_angle_l	mtp_angle_l	L5_S1_Flex_Ext	L5_S1_Lat_Bending	L5_S1_axial_rotation	L4_L5_Flex_Ext	L4_L5_Lat_Bending	L4_L5_axial_rotation	L3_L4_Flex_Ext	L3_L4_Lat_Bending	L3_L4_axial_rotation	L2_L3_Flex_Ext	L2_L3_Lat_Bending	L2_L3_axial_rotation	L1_L2_Flex_Ext	L1_L2_Lat_Bending	L1_L2_axial_rotation	L1_T12_Flex_Ext	L1_T12_Lat_Bending	L1_T12_axial_rotation	Abs_r3	Abs_r2	Abs_r1	Abs_t1	Abs_t2	neck_flexion	neck_bending	neck_rotation	arm_flex_r	arm_add_r	arm_rot_r	elbow_flex_r	pro_sup_r	wrist_flex_r	wrist_dev_r	arm_flex_l	arm_add_l	arm_rot_l	elbow_flex_l	pro_sup_l	wrist_flex_l	wrist_dev_l
      7.49152542	     15.34492432	    -50.96682085	    105.81793069	      0.20377474	      0.88491132	      0.44476443	     69.10086180	    -25.18545562	    -31.78934431	     59.25165212	      1.03413642	     56.14647296	     19.76803866	      0.00000000	     77.85677249	     14.59089316	      4.95462534	     62.73142425	      1.09486990	     44.46161445	    -10.60800502	      0.00000000	     -0.72926366	      7.01766802	     -0.60709557	     -1.35431555	      9.33349847	     -0.64503904	     -1.19810727	     17.06275803	     -0.64503904	     -0.83347544	     17.06275803	     -0.53120862	     -0.67719424	     14.31042863	     -0.49326515	     -0.41670126	     10.87036777	     -0.45532168	     -5.20905742	     79.38526420	     -3.37648342	      0.00000000	      0.00000000	     24.71715327	     13.80731736	     16.42940346	    -42.22926546	    -13.27001844	     16.12637384	     24.84476008	      3.40336163	    -11.62259372	      5.88465789	    -30.94059145	     17.16416256	     61.28627495	     32.62436763	     64.71643261	    -31.98517383	     -2.72470492
      7.50847458	     15.21638607	    -50.77983787	    105.66013379	      0.20355506	      0.88458821	      0.44600213	     69.03045223	    -25.26598746	    -31.84267018	     59.39175923	      1.03658175	     56.10609840	     19.76754948	      0.00000000	     77.85107132	     14.62122078	      4.94743026	     62.94778803	      1.09864616	     44.34108885	    -10.52267454	      0.00000000	     -0.75339684	      7.01731949	     -0.57847390	     -1.39913328	      9.33303492	     -0.61462852	     -1.23775567	     17.06191060	     -0.61462852	     -0.86105725	     17.06191060	     -0.50616466	     -0.69960431	     14.30971790	     -0.47001004	     -0.43049096	     10.86982788	     -0.43385542	     -5.38143830	     79.38132149	     -3.21729828	      0.00000000	      0.00000000	     24.66219711	     13.10007793	     15.78806849	    -42.41766771	    -12.88789298	     14.76539320	     25.13238477	      3.84193628	    -11.73023799	      5.97398918	    -31.11049016	     17.42985751	     59.70072631	     32.61556121	     73.90155521	    -31.76727656	      3.55748617
      7.52542373	     14.97678491	    -50.62425880	    105.40782782	      0.20318530	      0.88417077	      0.44720350	     69.05733704	    -25.39394228	    -31.78456995	     59.59032251	      1.04004733	     56.05776990	     19.76711757	      0.00000000	     77.85229016	     14.68482457	      4.85363711	     63.13428064	      1.10190107	     44.26119845	    -10.49554902	      0.00000000	     -0.77494477	      7.01077661	     -0.55890191	     -1.43914994	      9.32433290	     -0.59383328	     -1.27315677	     17.04600226	     -0.59383328	     -0.88568438	     17.04600226	     -0.48903917	     -0.71961372	     14.29637567	     -0.45410780	     -0.44280344	     10.85969297	     -0.41917643	     -5.53535301	     79.30730720	     -3.10844475	      0.00000000	      0.00000000	     24.41798741	     12.22878708	     14.87099881	    -42.55619832	    -12.68314101	     14.30551380	     25.36432098	      3.93469756	    -11.79164678	      5.89192453	    -30.83063732	     17.40625123	     59.95813657	     32.33168023	     80.06421265	    -31.36632722	      8.74942047
      7.54237288	     14.71551489	    -50.66865779	    105.15296527	      0.20257688	      0.88334447	      0.44790432	     69.26494389	    -25.58685216	    -31.69376091	     59.78774520	      1.04349301	     56.12872375	     19.77073320	      0.00000000	     77.98371340	     14.80150833	      4.72072706	     63.26791035	      1.10423335	     44.26922330	    -10.45036964	      0.00000000	     -0.76710165	      7.00758132	     -0.56758245	     -1.42458448	      9.32008315	     -0.60305635	     -1.26027131	     17.03823322	     -0.60305635	     -0.87672048	     17.03823322	     -0.49663464	     -0.71233060	     14.28985982	     -0.46116074	     -0.43832189	     10.85474346	     -0.42568683	     -5.47933041	     79.27116138	     -3.15672329	      0.00000000	      0.00000000	     23.85458871	     11.20572211	     14.25424426	    -42.81664939	    -12.70841368	     14.15192915	     25.62093345	      3.98751969	    -11.89145034	      5.82004111	    -30.28519744	     16.99821841	     62.00359793	     31.85387135	     81.88405982	    -31.49026534	     10.82708447
